<svg width="176" height="156" viewBox="0 0 176 156" fill="none" xmlns="http://www.w3.org/2000/svg">
<path fill-rule="evenodd" clip-rule="evenodd" d="M84.7382 2.89889C100.895 -2.19065 124.4 3.37957 134.003 14.4936C144.744 26.9254 128.197 43.8609 132.646 58.3461C135.338 67.1102 148.593 71.3467 153.932 79.3789C162.137 91.7228 182.477 106.371 172.13 117.746C161.316 129.635 132.907 113.918 116.219 120.841C100.208 127.484 101.982 149.483 84.7382 154.001C68.7298 158.195 51.9855 148.252 37.6211 141.435C23.5818 134.773 8.89881 127.013 3.05634 115.239C-2.60758 103.825 5.03376 91.5019 6.82673 79.3789C8.41348 68.6502 3.46225 55.8774 13.0169 47.8915C22.8077 39.7083 43.268 46.5812 54.4908 39.5409C69.3732 30.2047 66.9138 8.51377 84.7382 2.89889Z" fill="#35C5BE" stroke="white" stroke-width="2" stroke-linecap="round" stroke-dasharray="6 6"/>
</svg>
