<svg width="176" height="156" viewBox="0 0 176 156" fill="none" xmlns="http://www.w3.org/2000/svg">
<path fill-rule="evenodd" clip-rule="evenodd" d="M84.002 1.40444C99.3438 3.56811 107.703 18.6618 121.521 25.0424C136.331 31.8816 157.507 28.1937 167.688 40.0491C177.745 51.7604 175.696 69.1746 171.764 83.5484C168.194 96.5965 155.358 105.176 146.848 116.216C139.112 126.251 135.049 138.791 123.857 145.697C112.34 152.803 97.9626 155.133 84.002 154.994C70.129 154.856 56.6163 151.234 44.6528 144.909C32.7419 138.612 22.4836 129.881 15.8618 118.967C9.32093 108.187 9.41291 95.7013 7.42369 83.5484C5.10748 69.3979 -2.78265 54.7967 3.18858 41.542C9.24855 28.0904 24.9047 20.4193 39.0222 13.4075C52.9522 6.48895 68.2846 -0.812208 84.002 1.40444Z" fill="#FF1276" stroke="white" stroke-width="2" stroke-linecap="round" stroke-dasharray="6 6"/>
</svg>
