<svg width="176" height="156" viewBox="0 0 176 156" fill="none" xmlns="http://www.w3.org/2000/svg">
<path fill-rule="evenodd" clip-rule="evenodd" d="M92.0098 1.24317C103.268 2.96716 108.894 16.7303 119.761 20.1368C135.174 24.9685 155.133 14.0442 167.17 24.8041C178.249 34.7079 174.711 53.3434 173.462 68.1402C172.277 82.1586 166.211 94.7333 160.189 107.451C153.695 121.164 150.588 139.258 136.786 145.593C122.828 151.999 107.335 137.693 92.0098 138.743C75.0096 139.908 56.4163 163.127 43.5401 151.981C29.2696 139.628 51.0962 113.432 43.0555 96.3665C36.0991 81.6026 10.3043 83.2085 4.03628 68.1402C-2.05354 53.5004 1.19889 33.5655 12.1632 22.1019C23.4185 10.3339 43.1025 14.9302 58.8673 10.8118C70.1857 7.85509 80.4457 -0.527684 92.0098 1.24317Z" fill="#00AFED" stroke="white" stroke-width="2" stroke-linecap="round" stroke-dasharray="6 6"/>
</svg>
