<svg width="176" height="156" viewBox="0 0 176 156" fill="none" xmlns="http://www.w3.org/2000/svg">
<path fill-rule="evenodd" clip-rule="evenodd" d="M79.2779 1.48082C98.0076 4.86604 99.1156 27.0384 115.071 35.2987C129.315 42.6726 152.235 35.7357 164.006 45.3444C175.582 54.794 176.658 70.1864 173.41 82.9199C170.333 94.9857 153.282 101.622 146.787 112.859C139.209 125.974 149.214 147.324 132.494 153.722C115.284 160.307 98.4875 139.332 79.2779 138.691C61.3894 138.093 44.2736 156.998 28.6681 150.254C13.1396 143.543 20.543 124.312 15.585 111.167C11.9255 101.464 5.14472 92.9185 3.2719 82.9199C1.17388 71.7191 -0.888568 60.218 4.04457 49.5551C9.42185 37.9323 19.8857 28.2146 32.2308 20.326C46.0633 11.487 61.7631 -1.68482 79.2779 1.48082Z" fill="#E21213" stroke="white" stroke-width="2" stroke-linecap="round" stroke-dasharray="6 6"/>
</svg>
